<svg width="102" height="45" viewBox="0 0 102 45" fill="none" xmlns="http://www.w3.org/2000/svg">
<path d="M95.8534 36.0649C95.8534 40.768 92.0054 44.616 87.3023 44.616H15.429C10.7259 44.616 6.8779 40.768 6.8779 36.0649V8.832C6.8779 4.12888 10.7259 0.280853 15.429 0.280853H87.3023C92.0054 0.280853 95.8534 4.12888 95.8534 8.832V36.0649Z" fill="url(#paint0_linear_307_495)"/>
<path d="M80.8183 21.8667C84.5748 23.1809 86.4522 25.4327 86.4522 28.6186C86.4522 30.7157 85.6736 32.3801 84.1198 33.6112C82.5676 34.8431 80.3533 35.6076 77.471 35.6076C74.5888 35.6076 71.9227 34.7725 69.4672 33.4016C69.4938 32.6745 69.6859 31.8769 70.0387 31.011C70.3914 30.1451 70.8089 29.4572 71.2873 28.9548C73.5441 30.1276 75.508 30.7149 77.175 30.7149C77.9628 30.7149 78.5724 30.5827 78.9967 30.3165C79.4217 30.0512 79.633 29.6951 79.633 29.2477C79.633 28.4067 78.9817 27.7778 77.6833 27.3586L75.3509 26.4777C71.8223 25.1917 70.0579 23.0963 70.0579 20.1857C70.0579 18.0604 70.7991 16.376 72.2815 15.1298C73.7638 13.8855 75.7618 12.8141 78.2739 12.8141C79.5167 12.8141 80.885 12.9888 82.3822 13.3382C83.8778 13.6884 85.1065 14.551 86.0664 15.025C86.123 15.8086 85.9658 16.6687 85.6007 17.6053C85.233 18.5427 84.7822 19.2064 84.244 19.5983C81.8709 18.5353 79.8961 18.0037 78.314 18.0037C77.7475 18.0037 77.3208 18.1294 77.0213 18.3822C76.7251 18.6343 76.5795 18.9553 76.5795 19.3471C76.5795 20.0184 77.1152 20.5491 78.1891 20.9409L80.8183 21.8667Z" fill="#F6F6F6"/>
<path d="M62.0557 21.8667C65.8122 23.1809 67.6888 25.4327 67.6888 28.6186C67.6888 30.7157 66.9102 32.3801 65.3589 33.6112C63.8051 34.8431 61.59 35.6076 58.7086 35.6076C55.8288 35.6076 53.1594 34.7725 50.7047 33.4016C50.7313 32.6745 50.9235 31.8769 51.277 31.011C51.6297 30.1451 52.0455 29.4572 52.5256 28.9548C54.7849 30.1276 56.7479 30.7149 58.4141 30.7149C59.2026 30.7149 59.8123 30.5827 60.2349 30.3165C60.6584 30.0512 60.8713 29.6951 60.8713 29.2477C60.8713 28.4067 60.22 27.7778 58.9215 27.3586L56.5907 26.4777C53.0613 25.1917 51.2962 23.0963 51.2962 20.1857C51.2962 18.0604 52.0374 16.376 53.5213 15.1298C55.0028 13.8855 56.9999 12.8141 59.5121 12.8141C60.754 12.8141 62.1257 12.9888 63.6196 13.3382C65.1169 13.6884 66.3439 14.551 67.3046 15.025C67.3612 15.8086 67.2039 16.6687 66.8388 17.6053C66.472 18.5427 66.0204 19.2064 65.483 19.5983C63.1089 18.5353 61.1342 18.0037 59.5513 18.0037C58.9857 18.0037 58.5573 18.1294 58.2595 18.3822C57.9641 18.6343 57.8169 18.9553 57.8169 19.3471C57.8169 20.0184 58.3534 20.5491 59.4273 20.9409L62.0557 21.8667Z" fill="#F6F6F6"/>
<path d="M48.3731 22.1627C48.3731 20.8768 48.1684 19.688 47.7592 18.5966C47.3508 17.5053 46.7643 16.5695 46.0024 15.7859C45.2395 15.0024 44.3154 14.3876 43.229 13.9401C42.1409 13.4934 40.9198 12.8196 39.5648 12.8196C37.9551 12.8196 36.5503 13.5483 35.3508 14.1081C34.1513 14.6671 33.1631 15.4357 32.387 16.4148C31.6092 17.3946 31.0303 18.5476 30.6493 19.8759C30.2683 21.2044 30.0778 22.6517 30.0778 24.2172C30.0778 25.8376 30.2325 27.3365 30.5436 28.7065C30.8539 30.0748 31.3836 31.2627 32.1316 32.2709C32.8802 33.2774 33.8543 34.0602 35.0546 34.6183C36.2549 35.1773 37.7446 35.6066 39.5231 35.6066C42.798 35.6066 45.5647 34.6583 47.8238 33.0653C47.6001 31.4449 47.0228 30.1564 46.0954 29.2056C44.9416 29.6389 43.9209 29.9492 43.0359 30.1398C42.15 30.3279 41.3689 30.4226 40.6944 30.4226C39.3443 30.4226 38.3727 30.0791 37.783 29.3854C37.194 28.6941 36.8708 27.8765 36.8136 26.6346H47.8255C48.1893 25.4584 48.3731 23.8688 48.3731 22.1627ZM36.7717 22.4531C36.8556 21.0257 37.116 19.4985 37.5494 18.8697C37.9837 18.24 38.6483 17.9256 39.5457 17.9256C40.47 17.9256 41.1637 18.26 41.6253 18.9313C42.0879 19.6026 42.319 20.9551 42.319 21.9898L42.3198 22.4531H36.7717Z" fill="#F6F6F6"/>
<path d="M98.0704 25.2439C96.8734 26.2895 96.1788 27.7942 96.1788 29.7615V37.0882C96.1788 39.5237 95.4301 41.3762 93.739 42.6497C92.0496 43.9216 90.0798 44.5513 87.8314 44.6119L86.4989 44.6019V40.9511C87.6735 40.6084 88.1558 40.21 88.6233 39.7574C89.4702 38.9922 90.119 37.7469 90.119 36.0176V30.1025C90.1505 28.092 90.3053 26.5166 91.0372 25.3786C91.7718 24.2406 93.2016 23.2458 95.3269 22.3865C92.9796 21.3118 91.4032 19.9085 90.5996 18.1775C90.1272 17.1494 90.118 15.7619 90.118 14.0167V8.59235C90.118 6.80057 89.5316 5.54544 88.8104 4.82916C88.3413 4.36166 87.7955 3.98819 86.4971 3.70626V0.279089C88.0851 0.295723 88.8869 0.27752 89.8119 0.279089C91.236 0.267478 92.4289 1.0461 93.4669 1.85705C94.5975 2.74625 95.4009 3.94834 95.8717 5.46133C96.1396 6.33557 96.1778 7.17078 96.1778 7.96594V14.2396C96.1778 16.4555 96.8325 18.1026 97.9513 19.1781C98.5819 19.802 99.4719 20.3725 101 20.8875V23.7216C99.6459 24.096 98.7957 24.6033 98.0704 25.2439Z" fill="#F6F6F6" stroke="#404040" stroke-width="0.538843" stroke-miterlimit="10"/>
<path d="M13.8374 0.280953V0.285869C13.3824 0.283358 12.9706 0.281686 12.6413 0.282523C11.2163 0.270074 10.0236 1.0487 8.98635 1.86048C7.85424 2.74968 6.88523 3.91013 6.58165 5.46476C6.40862 6.37645 6.44523 7.17327 6.44523 7.96937V14.243C6.44523 16.4582 5.62089 18.1043 4.50291 19.1816C3.87315 19.8054 2.5289 20.3751 1 20.89V23.724C2.35503 24.0975 3.65943 24.6032 4.38303 25.2454C5.58083 26.2918 6.44419 27.7975 6.44419 29.7646V37.0913C6.44419 39.5253 7.02488 41.3794 8.71425 42.6512C10.4037 43.9222 12.3726 44.5544 14.621 44.6159L16.1258 44.6058V40.9525C14.952 40.609 14.3 40.2105 13.83 39.7596C12.984 38.9934 12.5048 37.7491 12.5048 36.0206V30.1047C12.4724 28.0926 12.148 26.5187 11.4152 25.3799C10.6824 24.2437 9.25248 23.2471 7.12468 22.3887C9.473 21.3132 11.0484 19.9107 11.852 18.1805C12.3253 17.1515 12.505 15.7641 12.505 14.0189V8.59463C12.505 6.80285 12.9208 5.54772 13.6412 4.83071C14.0322 4.44145 14.7275 4.12113 15.6934 3.8617L17.2206 3.87237C17.2206 2.55782 17.2206 1.73495 17.2206 0.28064H13.8376V0.280953H13.8374Z" fill="#F6F6F6" stroke="#404040" stroke-width="0.538843" stroke-miterlimit="10"/>
<path d="M27.9178 30.0051H26.774C25.5305 30.0051 25.0622 29.3513 25.0622 28.0379V3.89937C25.0622 2.44789 24.643 1.42887 24.1063 0.841687C23.5698 0.256072 22.6382 0.261931 21.3114 0.261931H18.7286L18.4242 0.256073V0.280968L18.4217 3.87364V29.2059C18.4217 31.2205 18.8742 32.6946 19.6793 33.6329C20.4853 34.5694 21.8471 35.037 23.7669 35.037C25.0945 35.037 26.6051 34.8972 28.2986 34.6168C28.3835 34.334 28.426 33.7285 28.426 32.7993C28.426 31.8676 28.2564 30.9385 27.9178 30.0051Z" fill="#F6F6F6"/>
<defs>
<linearGradient id="paint0_linear_307_495" x1="51.3657" y1="0.280851" x2="51.3657" y2="44.616" gradientUnits="userSpaceOnUse">
<stop offset="0.1497" stop-color="#2A4F84"/>
<stop offset="0.3884" stop-color="#294E82"/>
<stop offset="1" stop-color="#172E4E"/>
</linearGradient>
</defs>
</svg>
